<svg xmlns="http://www.w3.org/2000/svg" viewBox="0 0 24 24">
  <defs>
    <linearGradient id="jt-grad" x1="0%" y1="0%" x2="100%" y2="100%">
      <stop offset="0%" stop-color="#22d3ee" />
      <stop offset="100%" stop-color="#8b5cf6" />
    </linearGradient>
  </defs>
  <rect width="24" height="24" rx="5" fill="#0a0a14" />
  <path d="M12 6a4 4 0 00-4 4v4a4 4 0 008 0v-4a4 4 0 00-4-4zm0 2a2 2 0 012 2v.5H10V10a2 2 0 012-2zm-2 4.5h4v1.5a2 2 0 01-4 0v-1.5zm-3-2a.5.5 0 01.5.5v2a.5.5 0 01-1 0v-2a.5.5 0 01.5-.5zm10 0a.5.5 0 01.5.5v2a.5.5 0 01-1 0v-2a.5.5 0 01.5-.5zM8 7.5a.5.5 0 01.35.85l-1.5 1.5a.5.5 0 01-.7-.7l1.5-1.5A.5.5 0 018 7.5zm8 0a.5.5 0 01.5.15l1.5 1.5a.5.5 0 01-.7.7l-1.5-1.5a.5.5 0 01.2-.85z" fill="url(#jt-grad)" />
</svg>
